# xmcd CD database file
#
# Track frame offsets:
#	150
#	14860
#	35442
#	46522
#	66747
#	85732
#	98222
#	107632
#	120230
#	140747
#	167535
#	185482
#
# Disc length: 2685 seconds
#
# Revision: 6
# Processed by: cddbd v1.5PL3 Copyright (c) Steve Scherf et al.
# Submitted via: CDex 1.50beta9
#
DISCID=9f0a7b0c
DTITLE=Sutherland Brothers and Quiver - Dream Kid
DYEAR=1973
DGENRE=Blues
TTITLE0=You and Me
TTITLE1=I Hear Thunder
TTITLE2=Flying Down to Rio
TTITLE3=Seagull/Lonely Love
TTITLE4=Champion the Underdog
TTITLE5=Bluesy World
TTITLE6=Bad Loser
TTITLE7=Dream Kid
TTITLE8=Maker
TTITLE9=Rollin' Away
TTITLE10=Rocky Road
TTITLE11=Saved by the Angel
EXTD=YEAR: 1973
EXTT0=
EXTT1=
EXTT2=
EXTT3=
EXTT4=
EXTT5=
EXTT6=
EXTT7=
EXTT8=
EXTT9=
EXTT10=
EXTT11=
PLAYORDER=
